<?xml version="1.0" encoding="UTF-8" standalone="yes"?>
<svg xmlns="http://www.w3.org/2000/svg" xmlns:xlink="http://www.w3.org/1999/xlink" version="1.1" width="237px" height="25px" viewBox="0 0 237 25">
<defs>
<clipPath id="clip0">
<path clip-rule="evenodd" d="M 0 0 L 12.9685 3.99501 L 224.031 3.99501 L 237 0 Z "/>
</clipPath>
<clipPath id="clip1">
<path clip-rule="evenodd" d="M 237 0 L 224.031 3.99501 L 224.031 19.005 L 237 25 Z "/>
</clipPath>
<clipPath id="clip2">
<path clip-rule="evenodd" d="M 237 25 L 224.031 19.005 L 12.9685 19.005 L 0 25 Z "/>
</clipPath>
<clipPath id="clip3">
<path clip-rule="evenodd" d="M 0 25 L 12.9685 19.005 L 12.9685 3.99501 L 0 0 Z "/>
</clipPath>
</defs>
<path fill="none" stroke-width="0.1" stroke="#FFFFFF" d="M 5.4 1 L 231.6 1 "/>
<path stroke="none" fill-rule="evenodd" fill="#999999" clip-path="url(#clip0)" d="M 0.5 6.5 L 0.5 6.5 C 0.499998 3.1863 3.18629 0.500002 6.49999 0.5 L 230.5 0.5 C 233.814 0.499994 236.5 3.18628 236.5 6.5 C 236.5 6.5 236.5 6.5 236.5 6.5 L 236.5 18.5 C 236.5 21.8137 233.814 24.5 230.5 24.5 L 6.5 24.5 C 3.1863 24.5 0.500002 21.8137 0.5 18.5 Z "/>
<path stroke="none" fill-rule="evenodd" fill="#666666" clip-path="url(#clip1)" d="M 0.5 6.5 L 0.5 6.5 C 0.499998 3.1863 3.18629 0.500002 6.49999 0.5 L 230.5 0.5 C 233.814 0.499994 236.5 3.18628 236.5 6.5 C 236.5 6.5 236.5 6.5 236.5 6.5 L 236.5 18.5 C 236.5 21.8137 233.814 24.5 230.5 24.5 L 6.5 24.5 C 3.1863 24.5 0.500002 21.8137 0.5 18.5 Z "/>
<path stroke="none" fill-rule="evenodd" fill="#999999" clip-path="url(#clip2)" d="M 0.5 6.5 L 0.5 6.5 C 0.499998 3.1863 3.18629 0.500002 6.49999 0.5 L 230.5 0.5 C 233.814 0.499994 236.5 3.18628 236.5 6.5 C 236.5 6.5 236.5 6.5 236.5 6.5 L 236.5 18.5 C 236.5 21.8137 233.814 24.5 230.5 24.5 L 6.5 24.5 C 3.1863 24.5 0.500002 21.8137 0.5 18.5 Z "/>
<path stroke="none" fill-rule="evenodd" fill="#666666" clip-path="url(#clip3)" d="M 0.5 6.5 L 0.5 6.5 C 0.499998 3.1863 3.18629 0.500002 6.49999 0.5 L 230.5 0.5 C 233.814 0.499994 236.5 3.18628 236.5 6.5 C 236.5 6.5 236.5 6.5 236.5 6.5 L 236.5 18.5 C 236.5 21.8137 233.814 24.5 230.5 24.5 L 6.5 24.5 C 3.1863 24.5 0.500002 21.8137 0.5 18.5 Z "/>
<path stroke="none" fill-rule="evenodd" fill="#181818" d="M 2.15103 6.15103 L 2.15103 6.15103 C 2.15103 3.9419 3.94189 2.15104 6.15103 2.15103 L 230.849 2.15103 C 233.058 2.15103 234.849 3.94189 234.849 6.15103 C 234.849 6.15103 234.849 6.15103 234.849 6.15103 L 234.849 18.549 C 234.849 20.7581 233.058 22.549 230.849 22.549 L 6.15103 22.549 C 3.9419 22.549 2.15104 20.7581 2.15103 18.549 Z "/>
<path stroke="none" fill-rule="evenodd" fill="#FFFFFF" fill-opacity="0.376471" d="M 116.5 19.5 L 120.5 19.5 L 120.5 9.7 L 123 9.7 L 118.5 5.2 L 114 9.7 L 116.5 9.7 Z "/>
</svg>
