<?xml version="1.0" encoding="UTF-8" standalone="yes"?>
<svg xmlns="http://www.w3.org/2000/svg" xmlns:xlink="http://www.w3.org/1999/xlink" version="1.1" width="45px" height="26px" viewBox="0 0 45 26">
<defs>
<clipPath id="clip0">
<path clip-rule="evenodd" d="M 0 0 L 7.54207 4.1447 L 37.4579 4.1447 L 45 0 Z "/>
</clipPath>
<clipPath id="clip1">
<path clip-rule="evenodd" d="M 45 0 L 37.4579 4.1447 L 37.4579 19.8553 L 45 26 Z "/>
</clipPath>
<clipPath id="clip2">
<path clip-rule="evenodd" d="M 45 26 L 37.4579 19.8553 L 7.54207 19.8553 L 0 26 Z "/>
</clipPath>
<clipPath id="clip3">
<path clip-rule="evenodd" d="M 0 26 L 7.54207 19.8553 L 7.54207 4.1447 L 0 0 Z "/>
</clipPath>
</defs>
<path fill="none" stroke-width="0.1" stroke="#FFFFFF" d="M 9 1 L 36 1 "/>
<path stroke="none" fill-rule="evenodd" fill="#999999" clip-path="url(#clip0)" d="M 0.5 10.5 L 0.5 10.5 C 0.499995 4.97716 4.97714 0.500005 10.5 0.499999 L 34.5 0.5 C 40.0228 0.49999 44.5 4.97714 44.5 10.5 C 44.5 10.5 44.5 10.5 44.5 10.5 L 44.5 15.5 C 44.5 21.0228 40.0229 25.5 34.5 25.5 C 34.5 25.5 34.5 25.5 34.5 25.5 L 10.5 25.5 C 4.97716 25.5 0.500005 21.0229 0.5 15.5 Z "/>
<path stroke="none" fill-rule="evenodd" fill="#666666" clip-path="url(#clip1)" d="M 0.5 10.5 L 0.5 10.5 C 0.499995 4.97716 4.97714 0.500005 10.5 0.499999 L 34.5 0.5 C 40.0228 0.49999 44.5 4.97714 44.5 10.5 C 44.5 10.5 44.5 10.5 44.5 10.5 L 44.5 15.5 C 44.5 21.0228 40.0229 25.5 34.5 25.5 C 34.5 25.5 34.5 25.5 34.5 25.5 L 10.5 25.5 C 4.97716 25.5 0.500005 21.0229 0.5 15.5 Z "/>
<path stroke="none" fill-rule="evenodd" fill="#333333" clip-path="url(#clip2)" d="M 0.5 10.5 L 0.5 10.5 C 0.499995 4.97716 4.97714 0.500005 10.5 0.499999 L 34.5 0.5 C 40.0228 0.49999 44.5 4.97714 44.5 10.5 C 44.5 10.5 44.5 10.5 44.5 10.5 L 44.5 15.5 C 44.5 21.0228 40.0229 25.5 34.5 25.5 C 34.5 25.5 34.5 25.5 34.5 25.5 L 10.5 25.5 C 4.97716 25.5 0.500005 21.0229 0.5 15.5 Z "/>
<path stroke="none" fill-rule="evenodd" fill="#666666" clip-path="url(#clip3)" d="M 0.5 10.5 L 0.5 10.5 C 0.499995 4.97716 4.97714 0.500005 10.5 0.499999 L 34.5 0.5 C 40.0228 0.49999 44.5 4.97714 44.5 10.5 C 44.5 10.5 44.5 10.5 44.5 10.5 L 44.5 15.5 C 44.5 21.0228 40.0229 25.5 34.5 25.5 C 34.5 25.5 34.5 25.5 34.5 25.5 L 10.5 25.5 C 4.97716 25.5 0.500005 21.0229 0.5 15.5 Z "/>
<path stroke="none" fill-rule="evenodd" fill="#10CCE0" d="M 2.73352 9.40019 L 2.73352 9.40019 C 2.73352 5.71829 5.71828 2.73352 9.40018 2.73352 L 35.5998 2.73352 C 39.2817 2.73351 42.2665 5.71828 42.2665 9.40018 C 42.2665 9.40019 42.2665 9.40019 42.2665 9.40019 L 42.2665 16.2998 C 42.2665 19.9817 39.2817 22.9665 35.5998 22.9665 L 9.40019 22.9665 C 5.71829 22.9665 2.73352 19.9817 2.73352 16.2998 Z "/>
<path stroke="none" fill-rule="evenodd" fill="#FFFFFF" fill-opacity="0.376471" d="M 29.3 13.3 C 29.3 17.0555 26.2555 20.1 22.5 20.1 C 18.7445 20.1 15.7 17.0555 15.7 13.3 C 15.7 9.54447 18.7445 6.5 22.5 6.5 C 26.2555 6.5 29.3 9.54446 29.3 13.3 Z M 26.3 13.3 C 26.3 15.3987 24.5987 17.1 22.5 17.1 C 20.4013 17.1 18.7 15.3987 18.7 13.3 C 18.7 11.2013 20.4013 9.5 22.5 9.5 C 24.5987 9.5 26.3 11.2013 26.3 13.3 Z "/>
</svg>
