<?xml version="1.0" encoding="UTF-8" standalone="yes"?>
<svg xmlns="http://www.w3.org/2000/svg" xmlns:xlink="http://www.w3.org/1999/xlink" version="1.1" width="45px" height="26px" viewBox="0 0 45 26">
<defs>
<clipPath id="clip0">
<path clip-rule="evenodd" d="M 0 0 L 7.54207 4.1447 L 37.4579 4.1447 L 45 0 Z "/>
</clipPath>
<clipPath id="clip1">
<path clip-rule="evenodd" d="M 45 0 L 37.4579 4.1447 L 37.4579 19.8553 L 45 26 Z "/>
</clipPath>
<clipPath id="clip2">
<path clip-rule="evenodd" d="M 45 26 L 37.4579 19.8553 L 7.54207 19.8553 L 0 26 Z "/>
</clipPath>
<clipPath id="clip3">
<path clip-rule="evenodd" d="M 0 26 L 7.54207 19.8553 L 7.54207 4.1447 L 0 0 Z "/>
</clipPath>
</defs>
<path fill="none" stroke-width="0.1" stroke="#FFFFFF" d="M 9 1 L 36 1 "/>
<path stroke="none" fill-rule="evenodd" fill="#999999" clip-path="url(#clip0)" d="M 0.5 10.5 L 0.5 10.5 C 0.499995 4.97716 4.97714 0.500005 10.5 0.499999 L 34.5 0.5 C 40.0228 0.49999 44.5 4.97714 44.5 10.5 C 44.5 10.5 44.5 10.5 44.5 10.5 L 44.5 15.5 C 44.5 21.0228 40.0229 25.5 34.5 25.5 C 34.5 25.5 34.5 25.5 34.5 25.5 L 10.5 25.5 C 4.97716 25.5 0.500005 21.0229 0.5 15.5 Z "/>
<path stroke="none" fill-rule="evenodd" fill="#666666" clip-path="url(#clip1)" d="M 0.5 10.5 L 0.5 10.5 C 0.499995 4.97716 4.97714 0.500005 10.5 0.499999 L 34.5 0.5 C 40.0228 0.49999 44.5 4.97714 44.5 10.5 C 44.5 10.5 44.5 10.5 44.5 10.5 L 44.5 15.5 C 44.5 21.0228 40.0229 25.5 34.5 25.5 C 34.5 25.5 34.5 25.5 34.5 25.5 L 10.5 25.5 C 4.97716 25.5 0.500005 21.0229 0.5 15.5 Z "/>
<path stroke="none" fill-rule="evenodd" fill="#999999" clip-path="url(#clip2)" d="M 0.5 10.5 L 0.5 10.5 C 0.499995 4.97716 4.97714 0.500005 10.5 0.499999 L 34.5 0.5 C 40.0228 0.49999 44.5 4.97714 44.5 10.5 C 44.5 10.5 44.5 10.5 44.5 10.5 L 44.5 15.5 C 44.5 21.0228 40.0229 25.5 34.5 25.5 C 34.5 25.5 34.5 25.5 34.5 25.5 L 10.5 25.5 C 4.97716 25.5 0.500005 21.0229 0.5 15.5 Z "/>
<path stroke="none" fill-rule="evenodd" fill="#666666" clip-path="url(#clip3)" d="M 0.5 10.5 L 0.5 10.5 C 0.499995 4.97716 4.97714 0.500005 10.5 0.499999 L 34.5 0.5 C 40.0228 0.49999 44.5 4.97714 44.5 10.5 C 44.5 10.5 44.5 10.5 44.5 10.5 L 44.5 15.5 C 44.5 21.0228 40.0229 25.5 34.5 25.5 C 34.5 25.5 34.5 25.5 34.5 25.5 L 10.5 25.5 C 4.97716 25.5 0.500005 21.0229 0.5 15.5 Z "/>
<path stroke="none" fill-rule="evenodd" fill="#181818" d="M 2.73352 9.40019 L 2.73352 9.40019 C 2.73352 5.71829 5.71828 2.73352 9.40018 2.73352 L 35.5998 2.73352 C 39.2817 2.73351 42.2665 5.71828 42.2665 9.40018 C 42.2665 9.40019 42.2665 9.40019 42.2665 9.40019 L 42.2665 16.2998 C 42.2665 19.9817 39.2817 22.9665 35.5998 22.9665 L 9.40019 22.9665 C 5.71829 22.9665 2.73352 19.9817 2.73352 16.2998 Z "/>
<path stroke="none" fill-rule="evenodd" fill="#FFFFFF" fill-opacity="0.376471" d="M 20.5 20 L 24.5 20 L 24.5 10.2 L 27 10.2 L 22.5 5.7 L 18 10.2 L 20.5 10.2 Z "/>
</svg>
