<?xml version="1.0" encoding="UTF-8" standalone="yes"?>
<svg xmlns="http://www.w3.org/2000/svg" xmlns:xlink="http://www.w3.org/1999/xlink" version="1.1" width="20px" height="25px" viewBox="0 0 20 25">
<defs>
<clipPath id="clip0">
<path clip-rule="evenodd" d="M 0 0 L 10 11.5 L 20 0 Z "/>
</clipPath>
<clipPath id="clip1">
<path clip-rule="evenodd" d="M 20 0 L 10 11.5 L 20 25 Z "/>
</clipPath>
<clipPath id="clip2">
<path clip-rule="evenodd" d="M 20 25 L 10 11.5 L 0 25 Z "/>
</clipPath>
<clipPath id="clip3">
<path clip-rule="evenodd" d="M 0 25 L 10 11.5 L 0 0 Z "/>
</clipPath>
</defs>
<path fill="none" stroke-width="0.1" stroke="#FFFFFF" d="M 0.9 1 L 19.1 1 "/>
<path stroke="none" fill-rule="evenodd" fill="#999999" clip-path="url(#clip0)" d="M 0.5 1.5 L 0.5 1.5 C 0.5 0.947716 0.947714 0.5 1.5 0.5 L 18.5 0.5 C 19.0523 0.499999 19.5 0.947714 19.5 1.5 C 19.5 1.5 19.5 1.5 19.5 1.5 L 19.5 23.5 C 19.5 24.0523 19.0523 24.5 18.5 24.5 L 1.5 24.5 C 0.947716 24.5 0.5 24.0523 0.5 23.5 Z "/>
<path stroke="none" fill-rule="evenodd" fill="#666666" clip-path="url(#clip1)" d="M 0.5 1.5 L 0.5 1.5 C 0.5 0.947716 0.947714 0.5 1.5 0.5 L 18.5 0.5 C 19.0523 0.499999 19.5 0.947714 19.5 1.5 C 19.5 1.5 19.5 1.5 19.5 1.5 L 19.5 23.5 C 19.5 24.0523 19.0523 24.5 18.5 24.5 L 1.5 24.5 C 0.947716 24.5 0.5 24.0523 0.5 23.5 Z "/>
<path stroke="none" fill-rule="evenodd" fill="#333333" clip-path="url(#clip2)" d="M 0.5 1.5 L 0.5 1.5 C 0.5 0.947716 0.947714 0.5 1.5 0.5 L 18.5 0.5 C 19.0523 0.499999 19.5 0.947714 19.5 1.5 C 19.5 1.5 19.5 1.5 19.5 1.5 L 19.5 23.5 C 19.5 24.0523 19.0523 24.5 18.5 24.5 L 1.5 24.5 C 0.947716 24.5 0.5 24.0523 0.5 23.5 Z "/>
<path stroke="none" fill-rule="evenodd" fill="#666666" clip-path="url(#clip3)" d="M 0.5 1.5 L 0.5 1.5 C 0.5 0.947716 0.947714 0.5 1.5 0.5 L 18.5 0.5 C 19.0523 0.499999 19.5 0.947714 19.5 1.5 C 19.5 1.5 19.5 1.5 19.5 1.5 L 19.5 23.5 C 19.5 24.0523 19.0523 24.5 18.5 24.5 L 1.5 24.5 C 0.947716 24.5 0.5 24.0523 0.5 23.5 Z "/>
<path stroke="none" fill-rule="evenodd" fill="#626761" d="M 2.4 3.06667 L 2.4 3.06667 C 2.4 2.69848 2.69848 2.4 3.06667 2.4 L 16.9333 2.4 C 17.3015 2.4 17.6 2.69848 17.6 3.06667 C 17.6 3.06667 17.6 3.06667 17.6 3.06667 L 17.6 21.6333 C 17.6 22.0015 17.3015 22.3 16.9333 22.3 L 3.06667 22.3 C 2.69848 22.3 2.4 22.0015 2.4 21.6333 C 2.4 21.6333 2.4 21.6333 2.4 21.6333 Z "/>
<path stroke="none" fill-rule="evenodd" fill="#FFFFFF" fill-opacity="0.376471" d="M 4.3 6.2 L 15.7 6.2 L 15.7 10 L 7.7 10 L 7.7 14 L 15.7 14 L 15.7 17.7 L 4.3 17.7 Z "/>
</svg>
